<svg xmlns="http://www.w3.org/2000/svg" viewBox="0 0 512 512">
  <rect width="512" height="512" rx="112" fill="#58c5bd"/>
  <g fill="#ffffff">
    <circle cx="148" cy="152" r="36"/>
    <path d="M104 224c6-35 82-35 88 0l18 166H88z"/>
    <circle cx="256" cy="128" r="48"/>
    <path d="M194 220c8-54 116-54 124 0l26 196H168z"/>
    <circle cx="366" cy="152" r="36"/>
    <path d="M322 224c6-35 82-35 88 0l18 166H304z"/>
  </g>
  <g fill="none" stroke="#58c5bd" stroke-linecap="round" stroke-linejoin="round" stroke-width="18">
    <path d="M128 216c0-36 40-36 40 0"/>
    <path d="M232 190c0-44 48-44 48 0"/>
    <path d="M346 216c0-36 40-36 40 0"/>
    <path d="M164 246h42M185 225v42M284 244h48M308 220v48M382 246h42M403 225v42"/>
  </g>
</svg>
